# File generated by ImageToStl.com - Free Image and 3D model conversion tools

mtllib wildrosebuilds_puzzlecube.mtl

o obj1
v -16.26941872 -7.5 -6.94296598
v -16.37203979 -7.5 -6.9041667
v -16.26941872 -7.30000019 -6.94296598
v -16.37203979 -7.30000019 -6.9041667
v -16.47300911 -7.5 -6.8617425
v -16.47300911 -7.30000019 -6.8617425
v -16.5712471 -7.5 -6.81332064
v -16.5712471 -7.30000019 -6.81332064
v -16.66785622 -7.5 -6.76132536
v -16.66785622 -7.30000019 -6.76132536
v -16.76686096 -7.5 -6.69777489
v -16.76686096 -7.30000019 -6.69777489
v -16.86358452 -7.5 -6.63103437
v -16.86358452 -7.30000019 -6.63103437
v -16.95703697 -7.5 -6.55972481
v -16.95703697 -7.30000019 -6.55972481
v -17.04871559 -7.5 -6.48593521
v -17.04871559 -7.30000019 -6.48593521
v -17.26653099 -7.5 -6.22572136
v -17.26653099 -7.30000019 -6.22572136
v -17.36138344 -7.5 -6.08943653
v -17.36138344 -7.30000019 -6.08943653
v -17.43937111 -7.5 -5.94573832
v -17.43937111 -7.30000019 -5.94573832
v -17.4961071 -7.5 -5.79269838
v -17.4961071 -7.30000019 -5.79269838
v -17.53476143 -7.5 -5.63171005
v -17.53476143 -7.30000019 -5.63171005
v -17.58192062 -7.5 -5.29648161
v -17.58192062 -7.30000019 -5.29648161
v -17.55211067 -7.5 -5.02763844
v -17.55211067 -7.30000019 -5.02763844
v -17.52692223 -7.5 -4.89689302
v -17.52692223 -7.30000019 -4.89689302
v -17.48939133 -7.5 -4.77055883
v -17.48939133 -7.30000019 -4.77055883
v -17.43706131 -7.5 -4.64951468
v -17.43706131 -7.30000019 -4.64951468
v -17.37282372 -7.5 -4.53272724
v -17.37282372 -7.30000019 -4.53272724
v -17.22449684 -7.5 -4.30624723
v -17.22449684 -7.30000019 -4.30624723
v -17.16337204 -7.5 -4.23288202
v -17.16337204 -7.30000019 -4.23288202
v -17.09928131 -7.5 -4.16231251
v -17.09928131 -7.30000019 -4.16231251
v -17.03113365 -7.5 -4.09556627
v -17.03113365 -7.30000019 -4.09556627
v -16.96082497 -7.5 -4.03085709
v -16.96082497 -7.30000019 -4.03085709
v -16.64262009 -7.5 -3.82640171
v -16.64262009 -7.30000019 -3.82640171
v -16.47859383 -7.5 -3.73826146
v -16.47859383 -7.30000019 -3.73826146
v -16.30866051 -7.5 -3.66702652
v -16.30866051 -7.30000019 -3.66702652
v -16.13147736 -7.5 -3.61652994
v -16.13147736 -7.30000019 -3.61652994
v -15.94834328 -7.5 -3.5830667
v -15.94834328 -7.30000019 -3.5830667
v -15.57215405 -7.5 -3.54452848
v -15.57215405 -7.30000019 -3.54452848
v -15.23729515 -7.5 -3.57396531
v -15.23729515 -7.30000019 -3.57396531
v -15.07325363 -7.5 -3.59987283
v -15.07325363 -7.30000019 -3.59987283
v -14.91327858 -7.5 -3.63920784
v -14.91327858 -7.30000019 -3.63920784
v -14.75828552 -7.5 -3.69499946
v -14.75828552 -7.30000019 -3.69499946
v -14.60738182 -7.5 -3.76429391
v -14.60738182 -7.30000019 -3.76429391
v -14.31238842 -7.5 -3.92538786
v -14.31238842 -7.30000019 -3.92538786
v -14.23409748 -7.5 -3.98563409
v -14.23409748 -7.30000019 -3.98563409
v -14.15802097 -7.5 -4.04848051
v -14.15802097 -7.30000019 -4.04848051
v -14.08498096 -7.5 -4.1148901
v -14.08498096 -7.30000019 -4.1148901
v -14.0135603 -7.5 -4.18320036
v -14.0135603 -7.30000019 -4.18320036
v -13.82608414 -7.5 -4.43196297
v -13.82608414 -7.30000019 -4.43196297
v -13.74455929 -7.5 -4.56127501
v -13.74455929 -7.30000019 -4.56127501
v -13.67769241 -7.5 -4.69650364
v -13.67769241 -7.30000019 -4.69650364
v -13.62922955 -7.5 -4.83916283
v -13.62922955 -7.30000019 -4.83916283
v -13.59634209 -7.5 -4.98810863
v -13.59634209 -7.30000019 -4.98810863
v -13.55652809 -7.5 -5.29648161
v -13.55652809 -7.30000019 -5.29648161
v -13.59694862 -7.5 -5.60818863
v -13.59694862 -7.30000019 -5.60818863
v -13.63029575 -7.5 -5.7587285
v -13.63029575 -7.30000019 -5.7587285
v -13.67940617 -7.5 -5.90289259
v -13.67940617 -7.30000019 -5.90289259
v -13.74712753 -7.5 -6.0395298
v -13.74712753 -7.30000019 -6.0395298
v -13.82966232 -7.5 -6.17017555
v -13.82966232 -7.30000019 -6.17017555
v -14.01941967 -7.5 -6.42148113
v -14.01941967 -7.30000019 -6.42148113
v -14.1900835 -7.5 -6.5577774
v -14.1900835 -7.30000019 -6.5577774
v -14.36374378 -7.5 -6.68666458
v -14.36374378 -7.30000019 -6.68666458
v -14.5433979 -7.5 -6.80073357
v -14.5433979 -7.30000019 -6.80073357
v -14.73204041 -7.5 -6.89257526
v -14.73204041 -7.30000019 -6.89257526
v -14.93163967 -7.5 -6.95732737
v -14.93163967 -7.30000019 -6.95732737
v -15.14017773 -7.5 -6.99997616
v -15.14017773 -7.30000019 -6.99997616
v -15.35467625 -7.5 -7.02788973
v -15.35467625 -7.30000019 -7.02788973
v -15.57215405 -7.5 -7.04843521
v -15.57215405 -7.30000019 -7.04843521
v -15.64832592 -7.5 -7.04843521
v -15.64832592 -7.30000019 -7.04843521
v -15.80596352 -7.5 -7.03665686
v -15.80596352 -7.30000019 -7.03665686
v -15.96219158 -7.5 -7.01618481
v -15.96219158 -7.30000019 -7.01618481
v -16.11636734 -7.5 -6.98304224
v -16.11636734 -7.30000019 -6.98304224
v -21.36121559 -7.5 -7.86874771
v -12.79480934 -7.5 -7.86874771
v -21.36121559 -7.30000019 -7.86874771
v -12.79480934 -7.30000019 -7.86874771
v -12.78895092 -7.5 -7.86288834
v -12.78895092 -7.30000019 -7.86288834
v -12.78895092 -7.5 -7.05429411
v -12.78895092 -7.30000019 -7.05429411
v -12.79480934 -7.5 -7.04843521
v -12.79480934 -7.30000019 -7.04843521
v -13.64441872 -7.5 -7.04843521
v -13.64441872 -7.30000019 -7.04843521
v -13.58582497 -7.5 -7.01327896
v -13.58582497 -7.30000019 -7.01327896
v -13.50787735 -7.5 -6.9495635
v -13.50787735 -7.30000019 -6.9495635
v -13.433074 -7.5 -6.88241768
v -13.433074 -7.30000019 -6.88241768
v -13.36200809 -7.5 -6.81119728
v -13.36200809 -7.30000019 -6.81119728
v -13.29285622 -7.5 -6.73788786
v -13.29285622 -7.30000019 -6.73788786
v -13.21462917 -7.5 -6.64593315
v -13.21462917 -7.30000019 -6.64593315
v -13.13963985 -7.5 -6.55160713
v -13.13963985 -7.30000019 -6.55160713
v -13.07061291 -7.5 -6.45291233
v -13.07061291 -7.30000019 -6.45291233
v -13.00574684 -7.5 -6.35116911
v -13.00574684 -7.30000019 -6.35116911
v -12.89222431 -7.5 -6.0977478
v -12.89222431 -7.30000019 -6.0977478
v -12.84331799 -7.5 -5.96904278
v -12.84331799 -7.30000019 -5.96904278
v -12.80383682 -7.5 -5.83794451
v -12.80383682 -7.30000019 -5.83794451
v -12.77589607 -7.5 -5.70391607
v -12.77589607 -7.30000019 -5.70391607
v -12.75741482 -7.5 -5.56748581
v -12.75741482 -7.30000019 -5.56748581
v -12.73621559 -7.5 -5.29062271
v -12.73621559 -7.30000019 -5.29062271
v -12.73621559 -7.5 -5.28476238
v -12.73621559 -7.30000019 -5.28476238
v -12.75270271 -7.5 -5.0413909
v -12.75270271 -7.30000019 -5.0413909
v -12.78826809 -7.5 -4.80215073
v -12.78826809 -7.30000019 -4.80215073
v -12.85538673 -7.5 -4.56974268
v -12.85538673 -7.30000019 -4.56974268
v -12.94129372 -7.5 -4.34140301
v -12.94129372 -7.30000019 -4.34140301
v -13.03748226 -7.5 -4.14903975
v -13.03748226 -7.30000019 -4.14903975
v -13.14553261 -7.5 -3.96438837
v -13.14553261 -7.30000019 -3.96438837
v -13.27238369 -7.5 -3.79196024
v -13.27238369 -7.30000019 -3.79196024
v -13.41004372 -7.5 -3.62655997
v -13.41004372 -7.30000019 -3.62655997
v -13.49340248 -7.5 -3.5436945
v -13.49340248 -7.30000019 -3.5436945
v -13.57894135 -7.5 -3.46334457
v -13.57894135 -7.30000019 -3.46334457
v -13.66865349 -7.5 -3.38780904
v -13.66865349 -7.30000019 -3.38780904
v -13.76160622 -7.5 -3.31601262
v -13.76160622 -7.30000019 -3.31601262
v -13.86988831 -7.5 -3.23842525
v -13.86988831 -7.30000019 -3.23842525
v -13.9805479 -7.5 -3.16467309
v -13.9805479 -7.30000019 -3.16467309
v -14.09535217 -7.5 -3.09760404
v -14.09535217 -7.30000019 -3.09760404
v -14.21277905 -7.5 -3.03476334
v -14.21277905 -7.30000019 -3.03476334
v -14.5290308 -7.5 -2.9063828
v -14.5290308 -7.30000019 -2.9063828
v -14.6891489 -7.5 -2.85070729
v -14.6891489 -7.30000019 -2.85070729
v -14.85165787 -7.5 -2.80524969
v -14.85165787 -7.30000019 -2.80524969
v -15.01714897 -7.5 -2.77253485
v -15.01714897 -7.30000019 -2.77253485
v -15.18513775 -7.5 -2.75049663
v -15.18513775 -7.30000019 -2.75049663
v -15.52527905 -7.5 -2.72421598
v -15.52527905 -7.30000019 -2.72421598
v -15.61316967 -7.5 -2.72421598
v -15.61316967 -7.30000019 -2.72421598
v -15.94342709 -7.5 -2.74924207
v -15.94342709 -7.30000019 -2.74924207
v -16.10666084 -7.5 -2.77012587
v -16.10666084 -7.30000019 -2.77012587
v -16.26761818 -7.5 -2.80105376
v -16.26761818 -7.30000019 -2.80105376
v -16.42586899 -7.5 -2.84393215
v -16.42586899 -7.30000019 -2.84393215
v -16.58195305 -7.5 -2.89637136
v -16.58195305 -7.30000019 -2.89637136
v -16.89051247 -7.5 -3.01718473
v -16.89051247 -7.30000019 -3.01718473
v -17.00880051 -7.5 -3.07932854
v -17.00880051 -7.30000019 -3.07932854
v -17.12484741 -7.5 -3.14519858
v -17.12484741 -7.30000019 -3.14519858
v -17.23726082 -7.5 -3.21711588
v -17.23726082 -7.30000019 -3.21711588
v -17.34754562 -7.5 -3.29257488
v -17.34754562 -7.30000019 -3.29257488
v -17.43705559 -7.5 -3.36044908
v -17.43705559 -7.30000019 -3.36044908
v -17.52368546 -7.5 -3.43172288
v -17.52368546 -7.30000019 -3.43172288
v -17.60653114 -7.5 -3.50746036
v -17.60653114 -7.30000019 -3.50746036
v -17.68738747 -7.5 -3.58554363
v -17.68738747 -7.30000019 -3.58554363
v -17.73605537 -7.5 -3.63819504
v -17.73605537 -7.30000019 -3.63819504
v -17.78376961 -7.5 -3.69167066
v -17.78376961 -7.30000019 -3.69167066
v -17.82983971 -7.5 -3.74656463
v -17.82983971 -7.30000019 -3.74656463
v -17.87488747 -7.5 -3.80234122
v -17.87488747 -7.30000019 -3.80234122
v -18.09216881 -7.5 -4.14296627
v -18.09216881 -7.30000019 -4.14296627
v -18.18650818 -7.5 -4.31829691
v -18.18650818 -7.30000019 -4.31829691
v -18.26368523 -7.5 -4.49964905
v -18.26368523 -7.30000019 -4.49964905
v -18.31939507 -7.5 -4.68853331
v -18.31939507 -7.30000019 -4.68853331
v -18.35704231 -7.5 -4.88375521
v -18.35704231 -7.30000019 -4.88375521
v -18.40223122 -7.5 -5.28476238
v -18.40223122 -7.30000019 -5.28476238
v -18.37973213 -7.5 -5.56672525
v -18.37973213 -7.30000019 -5.56672525
v -18.36029625 -7.5 -5.70557785
v -18.36029625 -7.30000019 -5.70557785
v -18.33103371 -7.5 -5.84187603
v -18.33103371 -7.30000019 -5.84187603
v -18.28983879 -7.5 -5.97507191
v -18.28983879 -7.30000019 -5.97507191
v -18.2389431 -7.5 -6.10574484
v -18.2389431 -7.30000019 -6.10574484
v -18.12098122 -7.5 -6.36288738
v -18.12098122 -7.30000019 -6.36288738
v -18.07107162 -7.5 -6.44349527
v -18.07107162 -7.30000019 -6.44349527
v -18.01864815 -7.5 -6.52236223
v -18.01864815 -7.30000019 -6.52236223
v -17.96246147 -7.5 -6.59862232
v -17.96246147 -7.30000019 -6.59862232
v -17.90418434 -7.5 -6.67343473
v -17.90418434 -7.30000019 -6.67343473
v -17.81043434 -7.5 -6.77890396
v -17.81043434 -7.30000019 -6.77890396
v -17.73485374 -7.5 -6.85050154
v -17.73485374 -7.30000019 -6.85050154
v -17.65760422 -7.5 -6.9201026
v -17.65760422 -7.30000019 -6.9201026
v -17.57712746 -7.5 -6.98583937
v -17.57712746 -7.30000019 -6.98583937
v -17.49403 -7.5 -7.04843521
v -17.49403 -7.30000019 -7.04843521
v -21.36121559 -7.5 -7.04843521
v -21.36121559 -7.30000019 -7.04843521
v -21.36707497 -7.5 -7.05429411
v -21.36707497 -7.30000019 -7.05429411
v -21.36707497 -7.5 -7.86288834
v -21.36707497 -7.30000019 -7.86288834
v -18.16785812 -7.5 -11.36679554
v -18.09107399 -7.5 -11.46194267
v -18.16785812 -7.30000019 -11.36679554
v -18.09107399 -7.30000019 -11.46194267
v -18.00653839 -7.5 -11.54822731
v -18.00653839 -7.30000019 -11.54822731
v -17.90930367 -7.5 -11.61999702
v -17.90930367 -7.30000019 -11.61999702
v -17.80457497 -7.5 -11.68320179
v -17.80457497 -7.30000019 -11.68320179
v -18.27332497 -7.5 -11.68320179
v -18.27332497 -7.30000019 -11.68320179
v -18.27918434 -7.5 -11.68906116
v -18.27918434 -7.30000019 -11.68906116
v -18.27918434 -7.5 -12.49765491
v -18.27918434 -7.30000019 -12.49765491
v -18.27332497 -7.5 -12.50351429
v -18.27332497 -7.30000019 -12.50351429
v -12.79480934 -7.5 -12.50351429
v -12.79480934 -7.30000019 -12.50351429
v -12.78895092 -7.5 -12.49765491
v -12.78895092 -7.30000019 -12.49765491
v -12.78895092 -7.5 -11.68906116
v -12.78895092 -7.30000019 -11.68906116
v -12.79480934 -7.5 -11.68320179
v -12.79480934 -7.30000019 -11.68320179
v -15.90027809 -7.5 -11.68320179
v -15.90027809 -7.30000019 -11.68320179
v -16.20685577 -7.5 -11.66724968
v -16.20685577 -7.30000019 -11.66724968
v -16.35793495 -7.5 -11.65044594
v -16.35793495 -7.30000019 -11.65044594
v -16.50636101 -7.5 -11.62304783
v -16.50636101 -7.30000019 -11.62304783
v -16.65136909 -7.5 -11.58199215
v -16.65136909 -7.30000019 -11.58199215
v -16.79332733 -7.5 -11.52875996
v -16.79332733 -7.30000019 -11.52875996
v -17.07215309 -7.5 -11.40195179
v -17.07215309 -7.30000019 -11.40195179
v -17.25645638 -7.5 -11.25164986
v -17.25645638 -7.30000019 -11.25164986
v -17.33741379 -7.5 -11.16994953
v -17.33741379 -7.30000019 -11.16994953
v -17.40494156 -7.5 -11.08038998
v -17.40494156 -7.30000019 -11.08038998
v -17.43229294 -7.5 -11.0318594
v -17.43229294 -7.30000019 -11.0318594
v -17.4552269 -7.5 -10.98074245
v -17.4552269 -7.30000019 -10.98074245
v -17.49029922 -7.5 -10.87219238
v -17.49029922 -7.30000019 -10.87219238
v -17.53504372 -7.5 -10.64023209
v -17.53504372 -7.30000019 -10.64023209
v -17.53504372 -7.5 -10.28866959
v -17.53504372 -7.30000019 -10.28866959
v -17.5318203 -7.5 -10.22781467
v -17.5318203 -7.30000019 -10.22781467
v -17.52545357 -7.5 -10.16740894
v -17.52545357 -7.30000019 -10.16740894
v -17.51410484 -7.5 -10.10771751
v -17.51410484 -7.30000019 -10.10771751
v -17.49988747 -7.5 -10.04843616
v -17.49988747 -7.30000019 -10.04843616
v -17.44267273 -7.5 -9.92440891
v -17.44267273 -7.30000019 -9.92440891
v -17.41001129 -7.5 -9.86566544
v -17.41001129 -7.30000019 -9.86566544
v -17.37248993 -7.5 -9.81084442
v -17.37248993 -7.30000019 -9.81084442
v -17.32872772 -7.5 -9.76105881
v -17.32872772 -7.30000019 -9.76105881
v -17.27946663 -7.5 -9.71570969
v -17.27946663 -7.30000019 -9.71570969
v -17.17176437 -7.5 -9.63242054
v -17.17176437 -7.30000019 -9.63242054
v -17.17176437 -7.5 -9.62656116
v -17.17176437 -7.30000019 -9.62656116
v -17.69910812 -7.5 -8.97031021
v -17.69910812 -7.30000019 -8.97031021
v -17.73104668 -7.5 -8.99526405
v -17.73104668 -7.30000019 -8.99526405
v -17.76208305 -7.5 -9.02130127
v -17.76208305 -7.30000019 -9.02130127
v -17.79231834 -7.5 -9.04830074
v -17.79231834 -7.30000019 -9.04830074
v -17.82215309 -7.5 -9.07577991
v -17.82215309 -7.30000019 -9.07577991
v -17.89393234 -7.5 -9.15005207
v -17.89393234 -7.30000019 -9.15005207
v -17.96272278 -7.5 -9.22678757
v -17.96272278 -7.30000019 -9.22678757
v -18.02610016 -7.5 -9.3079834
v -18.02610016 -7.30000019 -9.3079834
v -18.08582497 -7.5 -9.39218616
v -18.08582497 -7.30000019 -9.39218616
v -18.19571495 -7.5 -9.5960207
v -18.19571495 -7.30000019 -9.5960207
v -18.24360085 -7.5 -9.70008945
v -18.24360085 -7.30000019 -9.70008945
v -18.2830162 -7.5 -9.80674267
v -18.2830162 -7.30000019 -9.80674267
v -18.31174278 -7.5 -9.91665459
v -18.31174278 -7.30000019 -9.91665459
v -18.33134842 -7.5 -10.02934837
v -18.33134842 -7.30000019 -10.02934837
v -18.35535622 -7.5 -10.25937271
v -18.35535622 -7.30000019 -10.25937271
v -18.35535622 -7.5 -10.66952896
v -18.35535622 -7.30000019 -10.66952896
v -18.34020233 -7.5 -10.8524971
v -18.34020233 -7.30000019 -10.8524971
v -18.30807114 -7.5 -11.0308342
v -18.30807114 -7.30000019 -11.0308342
v -18.24691772 -7.5 -11.20125675
v -18.24691772 -7.30000019 -11.20125675
v -18.35535622 -7.5 -20.97031212
v -18.30848122 -7.5 -20.95859337
v -18.35535622 -7.30000019 -20.97031212
v -18.30848122 -7.30000019 -20.95859337
v -15.60145092 -7.5 -20.13828087
v -15.60145092 -7.30000019 -20.13828087
v -12.9354353 -7.5 -19.33554649
v -12.9354353 -7.30000019 -19.33554649
v -12.89722919 -7.5 -19.32623482
v -12.89722919 -7.30000019 -19.32623482
v -12.85970783 -7.5 -19.31524849
v -12.85970783 -7.30000019 -19.31524849
v -12.8235569 -7.5 -19.30091667
v -12.8235569 -7.30000019 -19.30091667
v -12.78895092 -7.5 -19.28281212
v -12.78895092 -7.30000019 -19.28281212
v -12.78895092 -7.5 -18.39804649
v -12.78895092 -7.30000019 -18.39804649
v -13.82605934 -7.5 -18.10507774
v -13.82605934 -7.30000019 -18.10507774
v -16.49207497 -7.5 -17.33749962
v -16.49207497 -7.30000019 -17.33749962
v -15.56629467 -7.5 -17.07382774
v -15.56629467 -7.30000019 -17.07382774
v -13.00574684 -7.5 -16.33554649
v -13.00574684 -7.30000019 -16.33554649
v -12.95089626 -7.5 -16.32150078
v -12.95089626 -7.30000019 -16.32150078
v -12.89632607 -7.5 -16.30656815
v -12.89632607 -7.30000019 -16.30656815
v -12.84231472 -7.5 -16.28985786
v -12.84231472 -7.30000019 -16.28985786
v -12.78895092 -7.5 -16.27109337
v -12.78895092 -7.30000019 -16.27109337
v -12.78895092 -7.5 -15.39218616
v -12.78895092 -7.30000019 -15.39218616
v -12.80556583 -7.5 -15.38382435
v -12.80556583 -7.30000019 -15.38382435
v -12.82291889 -7.5 -15.37738037
v -12.82291889 -7.30000019 -15.37738037
v -12.84092712 -7.5 -15.37263966
v -12.84092712 -7.30000019 -15.37263966
v -12.85926247 -7.5 -15.36874866
v -12.85926247 -7.30000019 -15.36874866
v -15.70691967 -7.5 -14.50742054
v -15.70691967 -7.30000019 -14.50742054
v -18.35535622 -7.5 -13.70468712
v -18.35535622 -7.30000019 -13.70468712
v -18.35535622 -7.5 -14.60117054
v -18.35535622 -7.30000019 -14.60117054
v -17.20106125 -7.5 -14.94687366
v -17.20106125 -7.30000019 -14.94687366
v -14.20691872 -7.5 -15.82577991
v -14.20691872 -7.30000019 -15.82577991
v -14.20691872 -7.5 -15.83163929
v -14.20691872 -7.30000019 -15.83163929
v -15.37879467 -7.5 -16.16562271
v -15.37879467 -7.30000019 -16.16562271
v -17.97449684 -7.5 -16.90976524
v -17.97449684 -7.30000019 -16.90976524
v -18.01576233 -7.5 -16.92063522
v -18.01576233 -7.30000019 -16.92063522
v -18.05691719 -7.5 -16.93187904
v -18.05691719 -7.30000019 -16.93187904
v -18.09785461 -7.5 -16.94386482
v -18.09785461 -7.30000019 -16.94386482
v -18.13856125 -7.5 -16.95664024
v -18.13856125 -7.30000019 -16.95664024
v -18.13856125 -7.5 -17.71835899
v -18.13856125 -7.30000019 -17.71835899
v -16.63269997 -7.5 -18.15781212
v -16.63269997 -7.30000019 -18.15781212
v -14.20691872 -7.5 -18.84921837
v -14.20691872 -7.30000019 -18.84921837
v -14.20691872 -7.5 -18.85507774
v -14.20691872 -7.30000019 -18.85507774
v -15.81238747 -7.5 -19.32382774
v -15.81238747 -7.30000019 -19.32382774
v -16.41793823 -7.5 -19.50061607
v -16.41793823 -7.30000019 -19.50061607
v -17.02324486 -7.5 -19.6782341
v -17.02324486 -7.30000019 -19.6782341
v -17.62805748 -7.5 -19.8575058
v -17.62805748 -7.30000019 -19.8575058
v -18.23230934 -7.5 -20.03867149
v -18.23230934 -7.30000019 -20.03867149
v -18.26460457 -7.5 -20.04500961
v -18.26460457 -7.30000019 -20.04500961
v -18.29623413 -7.5 -20.05304337
v -18.29623413 -7.30000019 -20.05304337
v -18.32653999 -7.5 -20.06446457
v -18.32653999 -7.30000019 -20.06446457
v -18.35535622 -7.5 -20.07968712
v -18.35535622 -7.30000019 -20.07968712
v -22.5 -7.5 22.2878685
v -11.39999962 -7.5 11.18786812
v -22.5 -7.5 -22.5
v -11.39999962 -7.5 -22.5
v 11.31213188 4.11213255 11.09999943
v 0.06213203 15.36213207 -0.14999978
v 11.39999962 4.11213255 11.09999943
v 11.39999962 25.7175293 -10.5053978
v -11.39999962 25.7175293 -10.5053978
v -11.39999962 15.36213207 -0.14999978
v -11.39999962 26.18786812 -10.50062275
v -11.31213188 26.10000038 -10.50151539
v 11.39999962 26.10000038 -10.50151539
v 11.31213188 26.10000038 11.09999943
v 0.06213203 26.10000038 -0.14999978
v -11.31213188 26.10000038 -0.14999978
v -11.39999962 26.18786812 -0.14999978
v -11.39999962 26.18786812 -22.5
v -11.39999962 26.18786812 11.18786812
v -22.5 37.2878685 -22.5
v -22.5 37.2878685 22.2878685
v 11.39999962 3.9000001 11.09999943
v 11.39999962 3.9000001 -11.31213188
v 11.39999962 3.81213212 -22.5
v 11.39999962 26.10000038 -22.5
v 11.39999962 3.81213212 -11.40000057
v 22.5 -7.28786802 -22.5
v 22.5 26.10000038 -22.5
v 22.5 26.10000038 11.09999943
v 22.5 3.9000001 -11.31213188
v 22.5 3.9000001 11.09999943
vn -0.35365 0 -0.93538
vn -0.38737 -0 -0.92193
vn -0.44212 -0 -0.89696
vn -0.47392 -0 -0.88057
vn -0.54018 0 -0.84155
vn -0.56794 -0 -0.82307
vn -0.60662 -0 -0.79499
vn -0.62701 -0 -0.77901
vn -0.76681 0 -0.64187
vn -0.82078 -0 -0.57125
vn -0.87891 -0 -0.477
vn -0.93764 -0 -0.34761
vn -0.97237 -0 -0.23346
vn -0.99025 -0 -0.13931
vn -0.99391 0 0.1102
vn -0.98194 0 0.18918
vn -0.9586 0 0.28477
vn -0.9179 0 0.39682
vn -0.8762 0 0.48195
vn -0.83656 0 0.54788
vn -0.76828 0 0.64011
vn -0.74027 0 0.67231
vn -0.69973 0 0.71441
vn -0.6772 0 0.7358
vn -0.54056 0 0.84131
vn -0.47334 0 0.88088
vn -0.3866 0 0.92225
vn -0.27408 0 0.96171
vn -0.17975 0 0.98371
vn -0.10191 0 0.99479
vn 0.08757 -0 0.99616
vn 0.156 0 0.98776
vn 0.23877 0 0.97108
vn 0.33869 0 0.9409
vn 0.4173 0 0.90877
vn 0.47928 0 0.87766
vn 0.60985 -0 0.79251
vn 0.63689 0 0.77096
vn 0.67273 0 0.73989
vn 0.69119 0 0.72267
vn 0.7986 -0 0.60186
vn 0.84592 0 0.53331
vn 0.8964 0 0.44325
vn 0.94686 0 0.32166
vn 0.97648 0 0.21561
vn 0.99177 0 0.12805
vn 0.9917 0 -0.1286
vn 0.97633 0 -0.21628
vn 0.94658 0 -0.32246
vn 0.89599 0 -0.44408
vn 0.84543 0 -0.53409
vn 0.79805 0 -0.60259
vn 0.62404 0 -0.78139
vn 0.59597 0 -0.803
vn 0.53602 0 -0.84421
vn 0.43773 0 -0.8991
vn 0.30858 0 -0.9512
vn 0.20037 0 -0.97972
vn 0.12905 0 -0.99164
vn 0.09405 0 -0.99557
vn 0 0 -1
vn -0.07451 0 -0.99722
vn -0.12993 -0 -0.99152
vn -0.21017 -0 -0.97767
vn -0.25331 -0 -0.96739
vn -0 0 1
vn -0.70711 0 0.70711
vn -1 0 0
vn -0.70711 0 -0.70711
vn -0.51449 0 0.85749
vn -0.63288 0 0.77425
vn -0.66799 0 0.74417
vn -0.70787 0 0.70634
vn -0.72744 0 0.68618
vn -0.76167 0 0.64797
vn -0.78277 0 0.62231
vn -0.81946 0 0.57313
vn -0.84321 0 0.53759
vn -0.91262 0 0.40882
vn -0.93479 0 0.35521
vn -0.95752 0 0.28836
vn -0.97895 0 0.20408
vn -0.99095 0 0.13424
vn -0.99708 0 0.07634
vn -0.99771 0 -0.06759
vn -0.98913 -0 -0.14704
vn -0.96074 -0 -0.27746
vn -0.93595 -0 -0.35213
vn -0.89442 0 -0.44724
vn -0.86309 -0 -0.50505
vn -0.8055 -0 -0.59259
vn -0.76862 -0 -0.63971
vn -0.70501 0 -0.7092
vn -0.68465 -0 -0.72887
vn -0.64408 -0 -0.76496
vn -0.61128 -0 -0.79141
vn -0.58245 0 -0.81287
vn -0.55459 -0 -0.83212
vn -0.50443 -0 -0.86345
vn -0.47183 -0 -0.88169
vn -0.37613 0 -0.92657
vn -0.32843 -0 -0.94453
vn -0.26938 -0 -0.96303
vn -0.19393 -0 -0.98102
vn -0.13007 -0 -0.9915
vn -0.07703 -0 -0.99703
vn 0.07556 0 -0.99714
vn 0.1269 0 -0.99191
vn 0.1887 0 -0.98204
vn 0.26152 0 -0.9652
vn 0.31847 0 -0.94793
vn 0.36459 0 -0.93117
vn 0.46509 0 -0.88527
vn 0.49363 0 -0.86967
vn 0.53891 0 -0.84236
vn 0.56469 0 -0.8253
vn 0.60421 0 -0.79682
vn 0.63535 0 -0.77223
vn 0.67473 0 -0.73806
vn 0.69466 0 -0.71934
vn 0.73434 0 -0.67878
vn 0.74616 0 -0.66576
vn 0.76598 0 -0.64286
vn 0.77796 0 -0.62832
vn 0.84308 0 -0.53779
vn 0.88062 0 -0.47383
vn 0.92014 0 -0.39158
vn 0.95915 0 -0.28289
vn 0.98191 0 -0.18936
vn 0.99371 0 -0.11198
vn 0.99683 -0 0.07954
vn 0.99034 0 0.13863
vn 0.97772 0 0.20991
vn 0.95535 0 0.29546
vn 0.93182 0 0.36293
vn 0.90892 0 0.41696
vn 0.85021 -0 0.52644
vn 0.83281 0 0.55357
vn 0.80508 0 0.59317
vn 0.7889 0 0.61452
vn 0.74741 -0 0.66436
vn 0.68771 -0 0.72598
vn 0.66938 0 0.74292
vn 0.63262 0 0.77447
vn 0.60167 0 0.79875
vn 0 0 -1
vn 0.70707 0 -0.70714
vn 1 -0 0
vn 0.70707 -0 0.70714
vn -0 -1 -0
vn -0 -1 -0
vn 0 -1 0
vn 0 -1 -0
vn 0 -1 0
vn -0 -1 0
vn 0 -1 -0
vn -0 -1 0
vn 0 -1 -0
vn 0 -1 -0
vn -0 -1 -0
vn -0 -1 0
vn 0 -1 -0
vn 0 -1 -0
vn -0 -1 0
vn -0 -1 -0
vn -0 -1 -0
vn -0 -1 0
vn -0 -1 0
vn -0 -1 -0
vn 0 -1 -0
vn 0 -1 -0
vn -0 -1 -0
vn -0 -1 -0
vn 0 -1 0
vn 0 -1 0
vn -0 -1 0
vn 0 -1 0
vn -0 -1 -0
vn -0 -1 -0
vn 0 -1 0
vn 0 -1 -0
vn 0 -1 -0
vn -0 -1 -0
vn 0 -1 0
vn -0 -1 -0
vn -0 -1 -0
vn 0 -1 0
vn 0 -1 0
vn -0 -1 -0
vn 0 -1 0
vn 0 -1 0
vn -0 -1 -0
vn -0 -1 0
vn -0 -1 0
vn 0 -1 0
vn 0 -1 0
vn 0 -1 -0
vn 0 -1 -0
vn 0 -1 0
vn -0 -1 0
vn 0 -1 -0
vn 0 -1 0
vn -0 -1 0
vn -0 -1 0
vn 0 -1 -0
vn 0 -1 -0
vn 0 -1 0
vn 0 -1 0
vn 0 -1 -0
vn -0 -1 -0
vn -0 -1 0
vn -0 -1 0
vn -0 -1 0
vn -0 -1 -0
vn 0 -1 0
vn 0 -1 -0
vn -0 -1 -0
vn 0 -1 0
vn -0 -1 0
vn -0 -1 0
vn -0 -1 -0
vn 0 -1 0
vn -0 -1 0
vn -0 -1 -0
vn 0 -1 0
vn -0 -1 0
vn -0 -1 -0
vn -0 -1 -0
vn 0 -1 -0
vn 0 -1 -0
vn -0 -1 -0
vn 0 -1 0
vn 0 -1 -0
vn -0 -1 -0
vn 0 -1 -0
vn 0 -1 -0
vn -0 -1 -0
vn 0.77821 -0 0.628
vn 0.7143 0 0.69984
vn 0.59386 0 0.80457
vn 0.51671 0 0.85616
vn 0.70711 0 -0.70711
vn 0.70711 -0 0.70711
vn -0 0 1
vn -0.05196 0 -0.99865
vn -0.11055 -0 -0.99387
vn -0.18152 -0 -0.98339
vn -0.27242 -0 -0.96218
vn -0.35111 -0 -0.93633
vn -0.41399 -0 -0.91028
vn -0.632 0 -0.77497
vn -0.71032 -0 -0.70388
vn -0.79846 -0 -0.60204
vn -0.87116 -0 -0.49099
vn -0.91238 -0 -0.40933
vn -0.95157 -0 -0.30745
vn -0.9819 -0 -0.18941
vn -0.9986 0 0.05291
vn -0.99449 0 0.10482
vn -0.9824 0 0.18679
vn -0.97243 0 0.23319
vn -0.90803 0 0.4189
vn -0.874 0 0.48592
vn -0.82521 0 0.56482
vn -0.75109 0 0.6602
vn -0.67729 0 0.73572
vn -0.61174 0 0.79106
vn -0.77951 0 -0.62639
vn 0.61565 0 -0.78802
vn 0.64272 0 -0.7661
vn 0.66605 0 -0.74591
vn 0.67746 0 -0.73556
vn 0.71907 0 -0.69493
vn 0.7446 0 -0.66751
vn 0.7883 0 -0.61529
vn 0.81565 0 -0.57855
vn 0.88023 0 -0.47454
vn 0.90844 0 -0.41801
vn 0.93799 0 -0.34666
vn 0.9675 0 -0.25286
vn 0.9852 0 -0.17141
vn 0.9946 0 -0.10381
vn 0.99659 -0 0.08254
vn 0.98415 0 0.17732
vn 0.94124 0 0.33775
vn 0.90237 0 0.43097
vn -0 -1 0
vn 0 -1 0
vn 0 -1 -0
vn 0 -1 -0
vn 0 -1 -0
vn -0 -1 -0
vn -0 -1 -0
vn -0 -1 -0
vn -0 -1 -0
vn -0 -1 -0
vn 0 -1 -0
vn -0 -1 -0
vn 0 -1 0
vn -0.24254 0 0.97014
vn -0.29001 0 0.95702
vn -0.28831 0 0.95754
vn -0.23679 0 0.97156
vn -0.28098 0 0.95971
vn -0.36854 0 0.92961
vn -0.46358 0 0.88606
vn -0.27185 0 -0.96234
vn -0.27667 0 -0.96096
vn -0.27392 0 0.96175
vn -0.27704 0 0.96086
vn -0.24806 0 0.96874
vn -0.26395 0 0.96454
vn -0.29556 0 0.95532
vn -0.33172 0 0.94338
vn -0.44958 0 -0.89324
vn -0.34808 -0 -0.93747
vn -0.25462 -0 -0.96704
vn -0.20756 -0 -0.97822
vn -0.28952 0 -0.95717
vn -0.29007 0 -0.95701
vn 0.2869 -0 0.95796
vn 0.28166 -0 0.95951
vn 1 -0 0
vn 0.27409 0 -0.96171
vn 0.27558 0 -0.96128
vn 0.25476 0 -0.967
vn 0.26353 0 -0.96465
vn 0.28099 0 -0.95971
vn 0.29943 0 -0.95412
vn 0.28014 -0 0.95996
vn 0.27411 -0 0.9617
vn 0.28027 0 -0.95992
vn 0.28025 0 -0.95993
vn 0.28156 0 -0.95954
vn 0.28419 0 -0.95877
vn 0.28719 0 -0.95787
vn 0.1926 0 -0.98128
vn 0.24615 0 -0.96923
vn 0.35268 0 -0.93574
vn 0.46707 0 -0.88422
vn 0 -1 -0
vn -0 -1 -0
vn -0 -1 -0
vn -0 -1 -0
vn -0 -1 0
vn 0 -1 -0
vn 0 -1 -0
vn 0 -1 -0
vn -0 -1 -0
vn 0 -1 -0
vn -0 -1 0
vn 0 -1 -0
vn 0 -1 -0
vn 0 -1 -0
vn 0 -1 -0
vn 0 -1 -0
vn -0 -1 0
vn -0 -1 0
vn 0 -1 -0
vn -0 -1 0
vn 0 -1 -0
vn -0 -1 0
vn 0 -1 -0
vn -0 -1 0
vn 0 -1 -0
vn 0 -1 -0
vn -0 -1 0
vn 0 -1 -0
vn 0 -1 -0
vn -0 -1 -0
vn -0 -1 -0
vn -0 -1 -0
vn 0 -1 0
vn 0 -1 0
vn -0 -1 0
vn -0 -1 0
vn 0 -1 -0
vn -0 -1 0
vn -0 -1 0
vn 0 -1 0
vn 0 -1 0
vn 0 -1 -0
vn -0 -1 -0
vn -0 -1 -0
vn 0 -1 0
vn -0 -1 -0
vn -0 -1 -0
vn -0 -1 -0
vn 0 -1 -0
vn -0 -1 0
vn 0 -1 0
vn 0 -1 0
vn -0 -1 -0
vn -0 -1 -0
vn -0 -1 -0
vn 0 -1 -0
vn 0 -1 -0
vn -0 -1 -0
vn 0 -1 0
vn -0 -1 -0
vn 0 -1 -0
vn 0 -1 -0
vn 0 -1 -0
vn -0 -1 0
vn 0 -1 0
vn -0 -1 -0
vn -0 -1 -0
vn 0 -1 -0
vn 0 -1 -0
vn -0 -1 0
vn -0 -1 0
vn -0 -1 -0
vn 0 -1 -0
vn 0 -1 -0
vn -0 -1 -0
vn 0 -1 0
vn -0 -1 -0
vn 0 -1 0
vn -0 -1 -0
vn 0 -1 0
vn -0 -1 -0
vn 0 -1 0
vn 0 -1 0
vn -0 -1 -0
vn 0 -1 0
vn -0 -1 -0
vn 0 -1 -0
vn 0 -1 -0
vn 0 -1 -0
vn -0 -1 -0
vn 0 -1 0
vn 0 -1 -0
vn 0 -1 -0
vn -0 -1 -0
vn -0 -1 -0
vn -0 -1 -0
vn -0 -1 -0
vn -0 -1 -0
vn -0 -1 -0
vn -0 -1 -0
vn 0 -1 -0
vn -0 -1 -0
vn -0 -1 0
vn 0 -1 -0
vn -0 -1 0
vn -0 -1 -0
vn -0 -1 -0
vn -0 -1 -0
vn -0 -1 -0
vn 0 -1 -0
vn -0 -1 0
vn -0 -1 -0
vn -0 -1 -0
vn -0 -1 -0
vn -0 -1 -0
vn -0 -1 -0
vn 0 -1 -0
vn 0 -1 -0
vn -0 -1 0
vn 0 -1 0
vn -0 -1 -0
vn 0 -1 0
vn -0 -1 -0
vn -0 -1 -0
vn 0 -1 0
vn -0 -0.70711 -0.70711
vn 0 -0.70711 -0.70711
vn 0 -0.70711 -0.70711
vn 0 -0.70711 -0.70711
vn 0 0.01015 -0.99995
vn 0 0.01015 -0.99995
vn 0 0.01015 -0.99995
vn -0.70711 -0 0.70711
vn -0.70711 -0 0.70711
vn -0 -0 1
vn -0 -0 1
vn -0 -0 1
vn 1 -0 -0
vn 1 -0 -0
vn 1 0 0
vn 1 -0 0
vn 1 -0 -0
vn -0 0 -1
vn -1 -0 0
vn -0 -1 0
vn 0 -1 -0
vn 0 -1 -0
vn -0 -1 0
vn 0 -1 0
vn 0 -1 -0
vn -0 -1 0
vn 0 -1 -0
vn 0 -1 -0
vn 0 -1 0
vn 0 -1 0
vn -0 -1 -0
vn -0 -1 -0
vn 0 -1 0
vn -0 -1 -0
vn 0 -1 0
vn 0 -1 -0
vn 0 -1 0
vn -0 -1 0
vn -0 -1 -0
vn 0 -1 0
vn -0 -1 -0
vn -0 -1 -0
vn -0 -1 -0
vn -0 -1 -0
vn -0 -1 -0
vn -0 -1 0
vn -0 -1 -0
vn -0 -1 0
vn -0 -1 -0
vn 0 -1 0
vn 0 -1 0
vn 0 -1 -0
vn 0 -1 0
vn -0 -1 0
vn -0 -1 -0
vn -0 -1 0
vn 0 -1 0
vn -0 -1 0
vn -0 -1 0
vn -0 -1 0
vn -0 -1 -0
vn 0.70711 0.70711 -0
vn 0.70711 0.70711 0
vn 0.70711 0.70711 -0
vn 0.70711 0.70711 0
vn 0.70711 0.70711 -0
vn 0.70711 0.70711 0
vn 0.70711 -0 0.70711
vn 0.70711 -0 0.70711
vn 0 -0 -1
vn -0 0 -1
vn -0 1 0
vn -0 1 0
vn 0 1 0
vn 0 1 -0
vn 0 1 0
vn 0 1 0
vn -0.70711 -0.70711 -0
vn 0 -1 -0
vn 0 -1 -0
vn -0 -0.70711 0.70711
vn 0 -0.70711 0.70711
vn 1 -0 -0
vn 0 0 1
vn 0 -0 1
vn -0 -0 1
vn 0 0 1
usemtl mat1
f 1//1 2//1 3//1
f 3//1 2//1 4//1
f 4//2 2//2 5//2
f 4//2 5//2 6//2
f 6//3 5//3 7//3
f 6//3 7//3 8//3
f 8//4 7//4 9//4
f 8//4 9//4 10//4
f 9//5 11//5 10//5
f 10//5 11//5 12//5
f 12//6 11//6 13//6
f 12//6 13//6 14//6
f 14//7 13//7 15//7
f 14//7 15//7 16//7
f 16//8 15//8 17//8
f 16//8 17//8 18//8
f 17//9 19//9 18//9
f 18//9 19//9 20//9
f 20//10 19//10 21//10
f 20//10 21//10 22//10
f 22//11 21//11 23//11
f 22//11 23//11 24//11
f 24//12 23//12 25//12
f 24//12 25//12 26//12
f 26//13 25//13 27//13
f 26//13 27//13 28//13
f 28//14 27//14 29//14
f 28//14 29//14 30//14
f 29//15 31//15 30//15
f 30//15 31//15 32//15
f 32//16 31//16 33//16
f 32//16 33//16 34//16
f 34//17 33//17 35//17
f 34//17 35//17 36//17
f 36//18 35//18 37//18
f 36//18 37//18 38//18
f 38//19 37//19 39//19
f 38//19 39//19 40//19
f 40//20 39//20 41//20
f 40//20 41//20 42//20
f 41//21 43//21 42//21
f 42//21 43//21 44//21
f 44//22 43//22 45//22
f 44//22 45//22 46//22
f 46//23 45//23 47//23
f 46//23 47//23 48//23
f 48//24 47//24 49//24
f 48//24 49//24 50//24
f 49//25 51//25 50//25
f 50//25 51//25 52//25
f 52//26 51//26 53//26
f 52//26 53//26 54//26
f 54//27 53//27 55//27
f 54//27 55//27 56//27
f 56//28 55//28 57//28
f 56//28 57//28 58//28
f 58//29 57//29 59//29
f 58//29 59//29 60//29
f 60//30 59//30 61//30
f 60//30 61//30 62//30
f 61//31 63//31 62//31
f 62//31 63//31 64//31
f 64//32 63//32 65//32
f 64//32 65//32 66//32
f 66//33 65//33 67//33
f 66//33 67//33 68//33
f 68//34 67//34 69//34
f 68//34 69//34 70//34
f 70//35 69//35 71//35
f 70//35 71//35 72//35
f 72//36 71//36 73//36
f 72//36 73//36 74//36
f 73//37 75//37 74//37
f 74//37 75//37 76//37
f 76//38 75//38 77//38
f 76//38 77//38 78//38
f 78//39 77//39 79//39
f 78//39 79//39 80//39
f 80//40 79//40 81//40
f 80//40 81//40 82//40
f 81//41 83//41 82//41
f 82//41 83//41 84//41
f 84//42 83//42 85//42
f 84//42 85//42 86//42
f 86//43 85//43 87//43
f 86//43 87//43 88//43
f 88//44 87//44 89//44
f 88//44 89//44 90//44
f 90//45 89//45 91//45
f 90//45 91//45 92//45
f 92//46 91//46 93//46
f 92//46 93//46 94//46
f 93//47 95//47 94//47
f 94//47 95//47 96//47
f 96//48 95//48 97//48
f 96//48 97//48 98//48
f 98//49 97//49 99//49
f 98//49 99//49 100//49
f 100//50 99//50 101//50
f 100//50 101//50 102//50
f 102//51 101//51 103//51
f 102//51 103//51 104//51
f 104//52 103//52 105//52
f 104//52 105//52 106//52
f 105//53 107//53 106//53
f 106//53 107//53 108//53
f 108//54 107//54 109//54
f 108//54 109//54 110//54
f 110//55 109//55 111//55
f 110//55 111//55 112//55
f 112//56 111//56 113//56
f 112//56 113//56 114//56
f 114//57 113//57 115//57
f 114//57 115//57 116//57
f 116//58 115//58 117//58
f 116//58 117//58 118//58
f 118//59 117//59 119//59
f 118//59 119//59 120//59
f 120//60 119//60 121//60
f 120//60 121//60 122//60
f 121//61 123//61 122//61
f 122//61 123//61 124//61
f 123//62 125//62 124//62
f 124//62 125//62 126//62
f 126//63 125//63 127//63
f 126//63 127//63 128//63
f 128//64 127//64 129//64
f 128//64 129//64 130//64
f 130//65 129//65 1//65
f 130//65 1//65 3//65
f 131//66 132//66 133//66
f 133//66 132//66 134//66
f 135//67 136//67 132//67
f 132//67 136//67 134//67
f 135//68 137//68 136//68
f 136//68 137//68 138//68
f 139//69 140//69 137//69
f 137//69 140//69 138//69
f 139//61 141//61 140//61
f 140//61 141//61 142//61
f 141//70 143//70 142//70
f 142//70 143//70 144//70
f 143//71 145//71 144//71
f 144//71 145//71 146//71
f 146//72 145//72 147//72
f 146//72 147//72 148//72
f 148//73 147//73 149//73
f 148//73 149//73 150//73
f 150//74 149//74 151//74
f 150//74 151//74 152//74
f 151//75 153//75 152//75
f 152//75 153//75 154//75
f 154//76 153//76 155//76
f 154//76 155//76 156//76
f 156//77 155//77 157//77
f 156//77 157//77 158//77
f 158//78 157//78 159//78
f 158//78 159//78 160//78
f 159//79 161//79 160//79
f 160//79 161//79 162//79
f 162//80 161//80 163//80
f 162//80 163//80 164//80
f 164//81 163//81 165//81
f 164//81 165//81 166//81
f 166//82 165//82 167//82
f 166//82 167//82 168//82
f 168//83 167//83 169//83
f 168//83 169//83 170//83
f 170//84 169//84 171//84
f 170//84 171//84 172//84
f 173//68 174//68 171//68
f 171//68 174//68 172//68
f 173//85 175//85 174//85
f 174//85 175//85 176//85
f 176//86 175//86 177//86
f 176//86 177//86 178//86
f 178//87 177//87 179//87
f 178//87 179//87 180//87
f 180//88 179//88 181//88
f 180//88 181//88 182//88
f 181//89 183//89 182//89
f 182//89 183//89 184//89
f 184//90 183//90 185//90
f 184//90 185//90 186//90
f 186//91 185//91 187//91
f 186//91 187//91 188//91
f 188//92 187//92 189//92
f 188//92 189//92 190//92
f 189//93 191//93 190//93
f 190//93 191//93 192//93
f 192//94 191//94 193//94
f 192//94 193//94 194//94
f 194//95 193//95 195//95
f 194//95 195//95 196//95
f 196//96 195//96 197//96
f 196//96 197//96 198//96
f 197//97 199//97 198//97
f 198//97 199//97 200//97
f 200//98 199//98 201//98
f 200//98 201//98 202//98
f 202//99 201//99 203//99
f 202//99 203//99 204//99
f 204//100 203//100 205//100
f 204//100 205//100 206//100
f 205//101 207//101 206//101
f 206//101 207//101 208//101
f 208//102 207//102 209//102
f 208//102 209//102 210//102
f 210//103 209//103 211//103
f 210//103 211//103 212//103
f 212//104 211//104 213//104
f 212//104 213//104 214//104
f 214//105 213//105 215//105
f 214//105 215//105 216//105
f 216//106 215//106 217//106
f 216//106 217//106 218//106
f 217//61 219//61 218//61
f 218//61 219//61 220//61
f 219//107 221//107 220//107
f 220//107 221//107 222//107
f 222//108 221//108 223//108
f 222//108 223//108 224//108
f 224//109 223//109 225//109
f 224//109 225//109 226//109
f 226//110 225//110 227//110
f 226//110 227//110 228//110
f 228//111 227//111 229//111
f 228//111 229//111 230//111
f 230//112 229//112 231//112
f 230//112 231//112 232//112
f 231//113 233//113 232//113
f 232//113 233//113 234//113
f 234//114 233//114 235//114
f 234//114 235//114 236//114
f 236//115 235//115 237//115
f 236//115 237//115 238//115
f 238//116 237//116 239//116
f 238//116 239//116 240//116
f 239//117 241//117 240//117
f 240//117 241//117 242//117
f 242//118 241//118 243//118
f 242//118 243//118 244//118
f 244//119 243//119 245//119
f 244//119 245//119 246//119
f 246//120 245//120 247//120
f 246//120 247//120 248//120
f 247//121 249//121 248//121
f 248//121 249//121 250//121
f 250//122 249//122 251//122
f 250//122 251//122 252//122
f 252//123 251//123 253//123
f 252//123 253//123 254//123
f 254//124 253//124 255//124
f 254//124 255//124 256//124
f 255//125 257//125 256//125
f 256//125 257//125 258//125
f 258//126 257//126 259//126
f 258//126 259//126 260//126
f 260//127 259//127 261//127
f 260//127 261//127 262//127
f 262//128 261//128 263//128
f 262//128 263//128 264//128
f 264//129 263//129 265//129
f 264//129 265//129 266//129
f 266//130 265//130 267//130
f 266//130 267//130 268//130
f 267//131 269//131 268//131
f 268//131 269//131 270//131
f 270//132 269//132 271//132
f 270//132 271//132 272//132
f 272//133 271//133 273//133
f 272//133 273//133 274//133
f 274//134 273//134 275//134
f 274//134 275//134 276//134
f 276//135 275//135 277//135
f 276//135 277//135 278//135
f 278//136 277//136 279//136
f 278//136 279//136 280//136
f 279//137 281//137 280//137
f 280//137 281//137 282//137
f 282//138 281//138 283//138
f 282//138 283//138 284//138
f 284//139 283//139 285//139
f 284//139 285//139 286//139
f 286//140 285//140 287//140
f 286//140 287//140 288//140
f 287//141 289//141 288//141
f 288//141 289//141 290//141
f 289//142 291//142 290//142
f 290//142 291//142 292//142
f 292//143 291//143 293//143
f 292//143 293//143 294//143
f 294//144 293//144 295//144
f 294//144 295//144 296//144
f 296//145 295//145 297//145
f 296//145 297//145 298//145
f 297//146 299//146 298//146
f 298//146 299//146 300//146
f 301//147 302//147 299//147
f 299//147 302//147 300//147
f 301//148 303//148 302//148
f 302//148 303//148 304//148
f 131//149 133//149 303//149
f 303//149 133//149 304//149
f 122//150 124//150 134//150
f 134//151 124//151 126//151
f 134//152 126//152 298//152
f 298//153 126//153 128//153
f 298//154 128//154 130//154
f 130//154 3//154 298//154
f 298//155 3//155 4//155
f 298//156 4//156 6//156
f 6//154 8//154 298//154
f 298//154 8//154 10//154
f 298//154 10//154 12//154
f 12//154 14//154 298//154
f 298//157 14//157 296//157
f 296//158 14//158 294//158
f 294//159 14//159 16//159
f 294//160 16//160 292//160
f 292//161 16//161 18//161
f 292//154 18//154 290//154
f 290//154 18//154 288//154
f 288//162 18//162 286//162
f 286//163 18//163 20//163
f 286//164 20//164 284//164
f 284//165 20//165 282//165
f 282//166 20//166 280//166
f 280//167 20//167 22//167
f 280//154 22//154 278//154
f 278//154 22//154 24//154
f 278//168 24//168 276//168
f 276//169 24//169 26//169
f 276//170 26//170 274//170
f 274//171 26//171 28//171
f 274//172 28//172 272//172
f 272//173 28//173 270//173
f 270//174 28//174 30//174
f 270//175 30//175 268//175
f 268//154 30//154 32//154
f 268//176 32//176 266//176
f 266//177 32//177 34//177
f 266//178 34//178 264//178
f 264//179 34//179 36//179
f 264//154 36//154 38//154
f 264//154 38//154 262//154
f 262//180 38//180 40//180
f 262//181 40//181 260//181
f 260//182 40//182 42//182
f 260//154 42//154 258//154
f 258//154 42//154 44//154
f 258//154 44//154 256//154
f 256//154 44//154 46//154
f 256//154 46//154 48//154
f 48//154 50//154 256//154
f 256//154 50//154 254//154
f 254//154 50//154 252//154
f 252//183 50//183 250//183
f 250//184 50//184 248//184
f 248//185 50//185 52//185
f 248//186 52//186 246//186
f 246//187 52//187 244//187
f 244//188 52//188 242//188
f 242//189 52//189 240//189
f 240//190 52//190 54//190
f 240//191 54//191 238//191
f 238//192 54//192 236//192
f 236//154 54//154 56//154
f 236//154 56//154 234//154
f 234//154 56//154 232//154
f 232//154 56//154 58//154
f 232//154 58//154 230//154
f 230//154 58//154 60//154
f 230//154 60//154 228//154
f 228//154 60//154 226//154
f 226//154 60//154 224//154
f 224//154 60//154 222//154
f 222//154 60//154 62//154
f 222//154 62//154 220//154
f 220//154 62//154 218//154
f 218//154 62//154 216//154
f 216//193 62//193 64//193
f 216//194 64//194 214//194
f 214//195 64//195 212//195
f 212//196 64//196 210//196
f 210//197 64//197 66//197
f 210//154 66//154 208//154
f 208//154 66//154 68//154
f 208//154 68//154 206//154
f 206//154 68//154 204//154
f 204//154 68//154 70//154
f 204//154 70//154 202//154
f 202//198 70//198 200//198
f 200//199 70//199 72//199
f 200//200 72//200 198//200
f 198//201 72//201 196//201
f 196//202 72//202 74//202
f 196//203 74//203 194//203
f 194//154 74//154 192//154
f 192//154 74//154 190//154
f 190//204 74//204 76//204
f 190//205 76//205 78//205
f 190//154 78//154 188//154
f 188//154 78//154 80//154
f 188//154 80//154 186//154
f 186//154 80//154 82//154
f 186//206 82//206 184//206
f 184//207 82//207 84//207
f 184//208 84//208 182//208
f 182//209 84//209 86//209
f 182//154 86//154 180//154
f 180//210 86//210 88//210
f 180//211 88//211 90//211
f 180//154 90//154 178//154
f 178//154 90//154 92//154
f 178//154 92//154 176//154
f 176//154 92//154 94//154
f 176//154 94//154 174//154
f 174//154 94//154 172//154
f 172//212 94//212 170//212
f 170//213 94//213 96//213
f 170//214 96//214 168//214
f 168//154 96//154 98//154
f 168//154 98//154 166//154
f 166//154 98//154 164//154
f 164//154 98//154 100//154
f 164//154 100//154 162//154
f 162//215 100//215 102//215
f 162//216 102//216 160//216
f 160//217 102//217 104//217
f 160//154 104//154 158//154
f 158//218 104//218 156//218
f 156//219 104//219 106//219
f 156//220 106//220 154//220
f 154//221 106//221 152//221
f 152//222 106//222 150//222
f 150//223 106//223 108//223
f 150//224 108//224 148//224
f 148//225 108//225 146//225
f 146//226 108//226 110//226
f 146//227 110//227 144//227
f 144//154 110//154 142//154
f 142//154 110//154 112//154
f 142//154 112//154 114//154
f 114//154 116//154 142//154
f 142//228 116//228 134//228
f 142//229 134//229 136//229
f 116//230 118//230 134//230
f 134//231 118//231 120//231
f 134//232 120//232 122//232
f 302//233 304//233 300//233
f 300//234 304//234 133//234
f 300//235 133//235 298//235
f 298//236 133//236 134//236
f 136//237 138//237 142//237
f 142//154 138//154 140//154
f 305//238 306//238 307//238
f 307//238 306//238 308//238
f 308//239 306//239 309//239
f 308//239 309//239 310//239
f 310//240 309//240 311//240
f 310//240 311//240 312//240
f 312//241 311//241 313//241
f 312//241 313//241 314//241
f 313//61 315//61 314//61
f 314//61 315//61 316//61
f 317//242 318//242 315//242
f 315//242 318//242 316//242
f 317//148 319//148 318//148
f 318//148 319//148 320//148
f 321//243 322//243 319//243
f 319//243 322//243 320//243
f 321//244 323//244 322//244
f 322//244 323//244 324//244
f 325//67 326//67 323//67
f 323//67 326//67 324//67
f 325//68 327//68 326//68
f 326//68 327//68 328//68
f 329//69 330//69 327//69
f 327//69 330//69 328//69
f 329//61 331//61 330//61
f 330//61 331//61 332//61
f 331//245 333//245 332//245
f 332//245 333//245 334//245
f 334//246 333//246 335//246
f 334//246 335//246 336//246
f 336//247 335//247 337//247
f 336//247 337//247 338//247
f 338//248 337//248 339//248
f 338//248 339//248 340//248
f 340//249 339//249 341//249
f 340//249 341//249 342//249
f 342//250 341//250 343//250
f 342//250 343//250 344//250
f 343//251 345//251 344//251
f 344//251 345//251 346//251
f 346//252 345//252 347//252
f 346//252 347//252 348//252
f 348//253 347//253 349//253
f 348//253 349//253 350//253
f 350//254 349//254 351//254
f 350//254 351//254 352//254
f 352//255 351//255 353//255
f 352//255 353//255 354//255
f 354//256 353//256 355//256
f 354//256 355//256 356//256
f 356//257 355//257 357//257
f 356//257 357//257 358//257
f 357//68 359//68 358//68
f 358//68 359//68 360//68
f 359//258 361//258 360//258
f 360//258 361//258 362//258
f 362//259 361//259 363//259
f 362//259 363//259 364//259
f 364//260 363//260 365//260
f 364//260 365//260 366//260
f 366//261 365//261 367//261
f 366//261 367//261 368//261
f 367//262 369//262 368//262
f 368//262 369//262 370//262
f 370//263 369//263 371//263
f 370//263 371//263 372//263
f 372//264 371//264 373//264
f 372//264 373//264 374//264
f 374//265 373//265 375//265
f 374//265 375//265 376//265
f 376//266 375//266 377//266
f 376//266 377//266 378//266
f 378//267 377//267 379//267
f 378//267 379//267 380//267
f 381//68 382//68 379//68
f 379//68 382//68 380//68
f 381//268 383//268 382//268
f 382//268 383//268 384//268
f 383//269 385//269 384//269
f 384//269 385//269 386//269
f 386//270 385//270 387//270
f 386//270 387//270 388//270
f 388//271 387//271 389//271
f 388//271 389//271 390//271
f 390//272 389//272 391//272
f 390//272 391//272 392//272
f 391//273 393//273 392//273
f 392//273 393//273 394//273
f 394//274 393//274 395//274
f 394//274 395//274 396//274
f 396//275 395//275 397//275
f 396//275 397//275 398//275
f 398//276 397//276 399//276
f 398//276 399//276 400//276
f 399//277 401//277 400//277
f 400//277 401//277 402//277
f 402//278 401//278 403//278
f 402//278 403//278 404//278
f 404//279 403//279 405//279
f 404//279 405//279 406//279
f 406//280 405//280 407//280
f 406//280 407//280 408//280
f 408//281 407//281 409//281
f 408//281 409//281 410//281
f 410//282 409//282 411//282
f 410//282 411//282 412//282
f 411//148 413//148 412//148
f 412//148 413//148 414//148
f 413//283 415//283 414//283
f 414//283 415//283 416//283
f 416//284 415//284 417//284
f 416//284 417//284 418//284
f 418//285 417//285 419//285
f 418//285 419//285 420//285
f 420//286 419//286 305//286
f 420//286 305//286 307//286
f 416//154 358//154 414//154
f 414//154 358//154 360//154
f 414//154 360//154 412//154
f 412//154 360//154 362//154
f 412//154 362//154 364//154
f 358//154 416//154 356//154
f 356//154 416//154 418//154
f 356//154 418//154 354//154
f 354//154 418//154 420//154
f 354//154 420//154 352//154
f 352//154 420//154 350//154
f 350//154 420//154 307//154
f 350//154 307//154 348//154
f 348//154 307//154 308//154
f 348//287 308//287 310//287
f 348//288 310//288 346//288
f 346//289 310//289 312//289
f 346//154 312//154 314//154
f 316//154 318//154 314//154
f 314//154 318//154 320//154
f 314//290 320//290 322//290
f 324//291 332//291 322//291
f 322//292 332//292 334//292
f 322//293 334//293 336//293
f 332//150 324//150 330//150
f 330//294 324//294 326//294
f 330//154 326//154 328//154
f 336//295 338//295 322//295
f 322//296 338//296 340//296
f 322//297 340//297 314//297
f 314//154 340//154 342//154
f 314//154 342//154 344//154
f 344//154 346//154 314//154
f 412//154 364//154 410//154
f 410//154 364//154 366//154
f 410//154 366//154 368//154
f 410//154 368//154 408//154
f 408//154 368//154 370//154
f 408//298 370//298 406//298
f 406//299 370//299 404//299
f 404//154 370//154 372//154
f 404//154 372//154 402//154
f 402//154 372//154 374//154
f 402//154 374//154 376//154
f 402//154 376//154 400//154
f 400//154 376//154 378//154
f 400//154 378//154 382//154
f 382//154 378//154 380//154
f 384//154 386//154 382//154
f 382//154 386//154 388//154
f 382//154 388//154 390//154
f 390//154 392//154 382//154
f 382//154 392//154 394//154
f 382//154 394//154 396//154
f 396//154 398//154 382//154
f 382//154 398//154 400//154
f 421//300 422//300 423//300
f 423//300 422//300 424//300
f 422//301 425//301 424//301
f 424//301 425//301 426//301
f 425//302 427//302 426//302
f 426//302 427//302 428//302
f 427//303 429//303 428//303
f 428//303 429//303 430//303
f 430//304 429//304 431//304
f 430//304 431//304 432//304
f 432//305 431//305 433//305
f 432//305 433//305 434//305
f 434//306 433//306 435//306
f 434//306 435//306 436//306
f 435//68 437//68 436//68
f 436//68 437//68 438//68
f 437//307 439//307 438//307
f 438//307 439//307 440//307
f 439//308 441//308 440//308
f 440//308 441//308 442//308
f 441//309 443//309 442//309
f 442//309 443//309 444//309
f 443//310 445//310 444//310
f 444//310 445//310 446//310
f 445//311 447//311 446//311
f 446//311 447//311 448//311
f 448//312 447//312 449//312
f 448//312 449//312 450//312
f 450//313 449//313 451//313
f 450//313 451//313 452//313
f 452//314 451//314 453//314
f 452//314 453//314 454//314
f 453//68 455//68 454//68
f 454//68 455//68 456//68
f 455//315 457//315 456//315
f 456//315 457//315 458//315
f 458//316 457//316 459//316
f 458//316 459//316 460//316
f 460//317 459//317 461//317
f 460//317 461//317 462//317
f 462//318 461//318 463//318
f 462//318 463//318 464//318
f 463//319 465//319 464//319
f 464//319 465//319 466//319
f 465//320 467//320 466//320
f 466//320 467//320 468//320
f 467//148 469//148 468//148
f 468//148 469//148 470//148
f 469//321 471//321 470//321
f 470//321 471//321 472//321
f 471//322 473//322 472//322
f 472//322 473//322 474//322
f 475//323 476//323 473//323
f 473//323 476//323 474//323
f 475//324 477//324 476//324
f 476//324 477//324 478//324
f 477//325 479//325 478//325
f 478//325 479//325 480//325
f 479//326 481//326 480//326
f 480//326 481//326 482//326
f 482//327 481//327 483//327
f 482//327 483//327 484//327
f 484//328 483//328 485//328
f 484//328 485//328 486//328
f 486//329 485//329 487//329
f 486//329 487//329 488//329
f 487//148 489//148 488//148
f 488//148 489//148 490//148
f 489//330 491//330 490//330
f 490//330 491//330 492//330
f 491//331 493//331 492//331
f 492//331 493//331 494//331
f 495//148 496//148 493//148
f 493//148 496//148 494//148
f 495//332 497//332 496//332
f 496//332 497//332 498//332
f 497//333 499//333 498//333
f 498//333 499//333 500//333
f 500//334 499//334 501//334
f 500//334 501//334 502//334
f 502//335 501//335 503//335
f 502//335 503//335 504//335
f 504//336 503//336 505//336
f 504//336 505//336 506//336
f 505//337 507//337 506//337
f 506//337 507//337 508//337
f 508//338 507//338 509//338
f 508//338 509//338 510//338
f 510//339 509//339 511//339
f 510//339 511//339 512//339
f 512//340 511//340 513//340
f 512//340 513//340 514//340
f 513//148 421//148 514//148
f 514//148 421//148 423//148
f 423//154 424//154 514//154
f 514//154 424//154 512//154
f 512//154 424//154 510//154
f 510//154 424//154 508//154
f 508//154 424//154 506//154
f 506//154 424//154 504//154
f 504//154 424//154 502//154
f 502//154 424//154 426//154
f 502//154 426//154 500//154
f 500//154 426//154 498//154
f 498//154 426//154 496//154
f 496//154 426//154 428//154
f 496//154 428//154 440//154
f 440//154 428//154 438//154
f 438//154 428//154 430//154
f 438//154 430//154 432//154
f 432//154 434//154 438//154
f 438//154 434//154 436//154
f 496//154 440//154 494//154
f 494//341 440//341 442//341
f 494//342 442//342 492//342
f 492//343 442//343 480//343
f 492//344 480//344 490//344
f 490//345 480//345 482//345
f 490//346 482//346 484//346
f 480//154 442//154 478//154
f 478//154 442//154 444//154
f 478//154 444//154 476//154
f 476//154 444//154 446//154
f 476//154 446//154 474//154
f 474//154 446//154 464//154
f 474//154 464//154 466//154
f 446//154 448//154 464//154
f 464//154 448//154 450//154
f 464//154 450//154 452//154
f 454//154 456//154 452//154
f 452//154 456//154 464//154
f 458//154 460//154 456//154
f 456//154 460//154 462//154
f 456//154 462//154 464//154
f 474//154 466//154 472//154
f 472//154 466//154 468//154
f 472//154 468//154 470//154
f 484//347 486//347 490//347
f 490//348 486//348 488//348
f 519//473 528//473 520//473
f 520//474 528//474 529//474
f 529//475 530//475 520//475
f 520//476 530//476 524//476
f 524//477 530//477 531//477
f 540//543 538//543 541//543
f 544//544 545//544 537//544
f 537//545 545//545 536//545
f 541//546 544//546 540//546
f 540//547 544//547 537//547
f 519//549 521//549 528//549
f 528//550 521//550 543//550
f 543//551 521//551 545//551
f 545//552 521//552 536//552
usemtl mat2
f 515//349 225//349 516//349
f 516//350 225//350 223//350
f 516//351 223//351 221//351
f 517//352 301//352 515//352
f 515//353 301//353 299//353
f 515//354 299//354 261//354
f 261//355 299//355 263//355
f 263//356 299//356 265//356
f 265//357 299//357 267//357
f 267//358 299//358 269//358
f 269//359 299//359 271//359
f 271//360 299//360 273//360
f 273//361 299//361 275//361
f 275//362 299//362 277//362
f 277//363 299//363 279//363
f 279//154 299//154 281//154
f 281//154 299//154 283//154
f 283//364 299//364 285//364
f 285//365 299//365 287//365
f 287//154 299//154 289//154
f 289//154 299//154 291//154
f 291//154 299//154 293//154
f 293//366 299//366 295//366
f 295//367 299//367 297//367
f 518//154 421//154 517//154
f 517//154 421//154 513//154
f 517//368 513//368 469//368
f 469//369 513//369 489//369
f 469//370 489//370 487//370
f 516//371 171//371 518//371
f 518//372 171//372 135//372
f 518//373 135//373 327//373
f 327//154 135//154 132//154
f 327//154 132//154 329//154
f 329//154 132//154 331//154
f 331//154 132//154 381//154
f 331//154 381//154 333//154
f 333//154 381//154 335//154
f 335//154 381//154 337//154
f 337//154 381//154 339//154
f 339//154 381//154 341//154
f 341//154 381//154 379//154
f 341//154 379//154 343//154
f 343//154 379//154 345//154
f 345//154 379//154 377//154
f 345//374 377//374 347//374
f 347//375 377//375 375//375
f 347//376 375//376 373//376
f 425//154 422//154 518//154
f 518//154 422//154 421//154
f 513//154 511//154 489//154
f 489//377 511//377 509//377
f 489//378 509//378 507//378
f 507//154 505//154 489//154
f 489//379 505//379 503//379
f 489//380 503//380 501//380
f 489//154 501//154 491//154
f 491//154 501//154 499//154
f 491//154 499//154 497//154
f 495//154 493//154 497//154
f 497//154 493//154 491//154
f 487//154 485//154 469//154
f 469//381 485//381 483//381
f 469//382 483//382 481//382
f 481//383 479//383 469//383
f 469//154 479//154 471//154
f 471//154 479//154 477//154
f 471//154 477//154 473//154
f 473//154 477//154 475//154
f 517//384 469//384 131//384
f 131//385 469//385 467//385
f 131//386 467//386 413//386
f 413//387 467//387 415//387
f 415//388 467//388 319//388
f 415//154 319//154 317//154
f 319//389 467//389 321//389
f 321//154 467//154 465//154
f 321//154 465//154 323//154
f 323//154 465//154 463//154
f 323//154 463//154 461//154
f 461//154 459//154 323//154
f 323//390 459//390 457//390
f 323//391 457//391 455//391
f 453//392 518//392 455//392
f 455//393 518//393 325//393
f 455//394 325//394 323//394
f 518//395 453//395 437//395
f 437//396 453//396 451//396
f 437//397 451//397 449//397
f 449//398 447//398 437//398
f 437//399 447//399 445//399
f 437//400 445//400 439//400
f 439//401 445//401 443//401
f 439//402 443//402 441//402
f 437//154 435//154 518//154
f 518//154 435//154 433//154
f 518//154 433//154 431//154
f 431//154 429//154 518//154
f 518//154 429//154 427//154
f 518//154 427//154 425//154
f 313//154 311//154 315//154
f 315//403 311//403 309//403
f 315//404 309//404 306//404
f 306//154 305//154 315//154
f 315//154 305//154 419//154
f 315//154 419//154 317//154
f 317//154 419//154 417//154
f 317//154 417//154 415//154
f 413//154 411//154 131//154
f 131//154 411//154 409//154
f 131//154 409//154 407//154
f 407//154 405//154 131//154
f 131//154 405//154 403//154
f 131//154 403//154 401//154
f 401//154 399//154 131//154
f 131//154 399//154 397//154
f 131//154 397//154 395//154
f 395//154 393//154 131//154
f 131//154 393//154 391//154
f 131//154 391//154 389//154
f 389//405 387//405 131//405
f 131//406 387//406 385//406
f 131//154 385//154 383//154
f 131//154 383//154 132//154
f 132//154 383//154 381//154
f 347//407 373//407 349//407
f 349//408 373//408 371//408
f 349//409 371//409 351//409
f 351//410 371//410 369//410
f 351//411 369//411 353//411
f 353//154 369//154 355//154
f 355//154 369//154 357//154
f 357//154 369//154 359//154
f 359//154 369//154 367//154
f 359//154 367//154 365//154
f 363//154 361//154 365//154
f 365//154 361//154 359//154
f 327//373 325//373 518//373
f 131//412 303//412 517//412
f 517//413 303//413 301//413
f 261//414 259//414 515//414
f 515//415 259//415 257//415
f 515//416 257//416 255//416
f 255//417 253//417 515//417
f 515//418 253//418 251//418
f 515//419 251//419 249//419
f 249//420 247//420 515//420
f 515//421 247//421 245//421
f 515//422 245//422 243//422
f 243//423 241//423 515//423
f 515//424 241//424 239//424
f 515//425 239//425 237//425
f 237//426 235//426 515//426
f 515//427 235//427 233//427
f 515//428 233//428 231//428
f 231//429 229//429 515//429
f 515//430 229//430 227//430
f 515//431 227//431 225//431
f 221//432 219//432 516//432
f 516//433 219//433 217//433
f 516//434 217//434 215//434
f 215//435 213//435 516//435
f 516//436 213//436 211//436
f 516//437 211//437 209//437
f 209//438 207//438 516//438
f 516//439 207//439 205//439
f 516//440 205//440 203//440
f 203//441 201//441 516//441
f 516//442 201//442 199//442
f 516//443 199//443 197//443
f 197//444 195//444 516//444
f 516//445 195//445 193//445
f 516//446 193//446 191//446
f 191//447 189//447 516//447
f 516//448 189//448 187//448
f 516//449 187//449 185//449
f 185//450 183//450 516//450
f 516//451 183//451 181//451
f 516//452 181//452 179//452
f 179//453 177//453 516//453
f 516//454 177//454 175//454
f 516//455 175//455 173//455
f 173//456 171//456 516//456
f 135//457 171//457 137//457
f 137//458 171//458 169//458
f 137//459 169//459 167//459
f 167//154 165//154 137//154
f 137//154 165//154 163//154
f 137//154 163//154 139//154
f 139//154 163//154 161//154
f 139//154 161//154 159//154
f 159//460 157//460 139//460
f 139//461 157//461 155//461
f 139//462 155//462 153//462
f 153//463 151//463 139//463
f 139//154 151//154 149//154
f 139//464 149//464 147//464
f 147//465 145//465 139//465
f 139//154 145//154 143//154
f 139//154 143//154 141//154
f 518//61 517//61 532//61
f 532//483 517//483 534//483
f 534//484 517//484 535//484
f 535//68 517//68 515//68
f 11//154 9//154 109//154
f 109//485 9//485 7//485
f 109//486 7//486 5//486
f 5//487 2//487 109//487
f 109//488 2//488 129//488
f 109//154 129//154 119//154
f 119//154 129//154 127//154
f 119//154 127//154 125//154
f 2//489 1//489 129//489
f 125//154 123//154 119//154
f 119//154 123//154 121//154
f 119//154 117//154 109//154
f 109//154 117//154 111//154
f 111//490 117//490 115//490
f 111//491 115//491 113//491
f 109//154 107//154 11//154
f 11//154 107//154 13//154
f 13//492 107//492 15//492
f 15//493 107//493 103//493
f 15//494 103//494 19//494
f 19//495 103//495 21//495
f 21//154 103//154 23//154
f 23//154 103//154 25//154
f 25//496 103//496 27//496
f 27//497 103//497 101//497
f 27//498 101//498 99//498
f 107//154 105//154 103//154
f 99//499 97//499 27//499
f 27//500 97//500 95//500
f 27//501 95//501 93//501
f 93//502 91//502 27//502
f 27//503 91//503 29//503
f 29//154 91//154 31//154
f 31//154 91//154 33//154
f 33//154 91//154 35//154
f 35//504 91//504 37//504
f 37//505 91//505 39//505
f 39//506 91//506 89//506
f 39//507 89//507 87//507
f 87//508 85//508 39//508
f 39//509 85//509 83//509
f 39//510 83//510 41//510
f 41//511 83//511 43//511
f 43//512 83//512 79//512
f 43//513 79//513 71//513
f 71//514 79//514 77//514
f 71//515 77//515 75//515
f 83//516 81//516 79//516
f 75//154 73//154 71//154
f 43//517 71//517 51//517
f 51//518 71//518 69//518
f 51//519 69//519 53//519
f 53//154 69//154 55//154
f 55//154 69//154 57//154
f 57//154 69//154 59//154
f 59//520 69//520 63//520
f 59//521 63//521 61//521
f 67//154 65//154 69//154
f 69//522 65//522 63//522
f 49//523 47//523 51//523
f 51//524 47//524 45//524
f 51//525 45//525 43//525
f 19//526 17//526 15//526
f 541//535 538//535 542//535
f 542//536 538//536 539//536
f 545//148 544//148 543//148
f 543//148 544//148 542//148
f 542//548 544//548 541//548
usemtl mat3
f 519//466 520//466 521//466
f 521//467 520//467 522//467
f 522//468 520//468 523//468
f 523//469 520//469 524//469
f 525//470 526//470 523//470
f 523//471 526//471 522//471
f 522//472 526//472 527//472
f 524//478 518//478 523//478
f 523//479 518//479 532//479
f 523//480 532//480 525//480
f 531//148 533//148 524//148
f 524//481 533//481 516//481
f 524//482 516//482 518//482
f 533//527 531//527 535//527
f 535//528 531//528 534//528
f 534//529 531//529 525//529
f 534//530 525//530 532//530
f 531//531 530//531 525//531
f 525//532 530//532 526//532
f 535//533 515//533 533//533
f 533//534 515//534 516//534
f 536//68 521//68 537//68
f 537//68 521//68 522//68
f 537//68 522//68 538//68
f 538//68 522//68 539//68
f 539//68 522//68 527//68
f 538//68 540//68 537//68
f 526//537 529//537 527//537
f 527//538 529//538 528//538
f 527//539 528//539 543//539
f 526//540 530//540 529//540
f 543//541 542//541 527//541
f 527//542 542//542 539//542
# Vertices: 545, normals: 552, texture coordinates: 0, faces: 1086

